<svg xmlns="http://www.w3.org/2000/svg" width="328.596" height="262.685" viewBox="0 0 328.596 262.685">
  <g id="Group_31" data-name="Group 31" transform="translate(-78.222 -49.893)">
    <g id="Group_3" data-name="Group 3" transform="translate(309.465 49.893)">
      <g id="Group_2" data-name="Group 2">
        <rect id="Rectangle_3" data-name="Rectangle 3" width="97.352" height="245.157" transform="translate(97.352 245.157) rotate(180)" fill="#033e59"/>
        <rect id="Rectangle_4" data-name="Rectangle 4" width="5.33" height="245.157" transform="translate(0 0)" fill="#0881b7"/>
        <path id="Path_4" data-name="Path 4" d="M446.881,49.893l68.928,6.4V290.194l-68.928,4.856Z" transform="translate(-441.551 -49.893)" fill="#116b93"/>
      </g>
    </g>
    <path id="Path_5" data-name="Path 5" d="M240.846,442.521c-26.336,0-49.373.972-61.968,2.424a1.354,1.354,0,0,0,.334-.827c0-3.526-17.317-6.384-38.679-6.384s-38.678,2.858-38.678,6.384,17.317,6.385,38.678,6.385c11.635,0,22.063-.85,29.153-2.192,5.678,2.355,35.373,4.15,71.16,4.15,39.844,0,72.144-2.225,72.144-4.97S280.69,442.521,240.846,442.521Z" transform="translate(-7.645 -139.883)" fill="#033e59"/>
    <path id="Path_6" data-name="Path 6" d="M518.664,447.292c0,2.912-18.695,5.041-32.764,5.041s-19.782-2.381-18.186-5.041c2.417-4.029,11.406-3.606,25.475-3.606S518.664,444.38,518.664,447.292Z" transform="translate(-139.506 -142.026)" fill="#033e59"/>
    <g id="Group_11" data-name="Group 11" transform="translate(308.12 85.136)">
      <g id="Group_10" data-name="Group 10">
        <g id="Group_8" data-name="Group 8">
          <g id="Group_4" data-name="Group 4" transform="translate(22.505 193.628)">
            <path id="Path_7" data-name="Path 7" d="M503.24,444.065s.922.487.222,2.529c-.077.226-7.411.015-14.829-.067-9.393-.1-19.117-.3-16.585-2.463" transform="translate(-471.641 -420.931)" fill="#fff"/>
            <path id="Path_8" data-name="Path 8" d="M503.806,420.894l1.241-11.206,8.976-1.808s-.654,8.44-.654,14.4C513.369,422.279,509.931,432.329,503.806,420.894Z" transform="translate(-483.242 -407.88)" fill="#e79e7d"/>
            <path id="Path_9" data-name="Path 9" d="M503.47,437.843c-1.075.056-3.825.08-7.27.086-2.106.006-4.464.006-6.866,0-8.3-.019-17.059-.086-17.059-.086s.853-1.059,5.216-1.49a15.811,15.811,0,0,0,6.48-2.013c.336-.2.677-.4,1.018-.622a27.424,27.424,0,0,0,6.88-6.7.514.514,0,0,1,.881.091c1.221,2.85,4.27,7.876,8.742,2.037l.4-.539c.6,0,.672.57.879,1.118a18.768,18.768,0,0,1,1.272,5.034A5.2,5.2,0,0,1,503.47,437.843Z" transform="translate(-471.87 -414.707)" fill="#033e59"/>
            <path id="Path_10" data-name="Path 10" d="M516.611,442.135c-1.075.056-3.825.08-7.27.086l-.632-.086s1.6-4.711,8.472-3.085A5.2,5.2,0,0,1,516.611,442.135Z" transform="translate(-485.01 -418.999)" fill="#116b93"/>
            <path id="Path_11" data-name="Path 11" d="M489.334,441.827c-8.3-.019-17.059-.086-17.059-.086s.853-1.059,5.216-1.49a15.812,15.812,0,0,0,6.48-2.013c.336-.2.677-.4,1.018-.622C486.893,438.336,489,439.622,489.334,441.827Z" transform="translate(-471.87 -418.605)" fill="#116b93"/>
            <path id="Path_12" data-name="Path 12" d="M498.753,436.876a8.219,8.219,0,0,0-2.447-2.217" transform="translate(-480.537 -417.538)" fill="none" stroke="#fff" stroke-linecap="round" stroke-linejoin="round" stroke-width="1"/>
            <path id="Path_13" data-name="Path 13" d="M500.967,434.706a7.1,7.1,0,0,0-2.238-2.118" transform="translate(-481.411 -416.792)" fill="none" stroke="#fff" stroke-linecap="round" stroke-linejoin="round" stroke-width="1"/>
          </g>
          <g id="Group_5" data-name="Group 5" transform="translate(49.514 185.158)">
            <path id="Path_14" data-name="Path 14" d="M523.251,409.307l-9.364-6.673,5.441-8,10.625,9.522S535.6,412.664,523.251,409.307Z" transform="translate(-513.887 -394.631)" fill="#e79e7d"/>
            <path id="Path_15" data-name="Path 15" d="M540.423,408.6s.145-.871,1.335.481,2.7,13.721,2.571,14.18-3.061,9.213-10.469,11.732a5.329,5.329,0,0,1-2.038-1.048Z" transform="translate(-520.356 -399.569)" fill="#fff"/>
            <path id="Path_16" data-name="Path 16" d="M538.3,407.688c.041,1,.52,4.2.952,7.292.231,1.658.451,3.28.587,4.518a9.29,9.29,0,0,1,.1,2.109,4.078,4.078,0,0,1-.182.472c-.973,2.236-5.452,10.395-10.058,10.955a38.415,38.415,0,0,0,.513-10.794c-.067-.653-.162-1.3-.274-1.945-.568-3.17-1.752-6.111-4.009-7.807,0,0,.205-3.036,3.858-1.479a14.483,14.483,0,0,0,1.753-4.447,1,1,0,0,1,1.492-.612,22.071,22.071,0,0,0,2.058,1.123C536.3,407.634,537.562,408.027,538.3,407.688Z" transform="translate(-518.229 -398.659)" fill="#033e59"/>
            <path id="Path_17" data-name="Path 17" d="M530.154,420.484s2.261-2.477,4.768-2.162" transform="translate(-519.754 -403.165)" fill="none" stroke="#fff" stroke-linecap="round" stroke-linejoin="round" stroke-width="1"/>
            <path id="Path_18" data-name="Path 18" d="M531.267,423.738s2.3-2.044,4.674-1.414" transform="translate(-520.156 -404.576)" fill="none" stroke="#fff" stroke-linecap="round" stroke-linejoin="round" stroke-width="1"/>
            <path id="Path_19" data-name="Path 19" d="M541.88,430.676c-.973,2.236-5.452,10.395-10.058,10.955a38.411,38.411,0,0,0,.513-10.794C534.418,429.51,537.454,429.053,541.88,430.676Z" transform="translate(-520.356 -407.257)" fill="#116b93"/>
            <path id="Path_20" data-name="Path 20" d="M543.4,408.406c.041,1,.52,4.2.952,7.292-4.29-.788-4.516-5.068-4.16-7.908C541.4,408.352,542.665,408.745,543.4,408.406Z" transform="translate(-523.332 -399.377)" fill="#116b93"/>
          </g>
          <path id="Path_21" data-name="Path 21" d="M518.947,390.117s0,8.781-5.326,10.038C509.144,395.871,499.562,387,499.562,387l10.05-12.193Z" transform="translate(-459.206 -202.324)" fill="#0881b7"/>
          <g id="Group_7" data-name="Group 7">
            <g id="Group_6" data-name="Group 6">
              <path id="Path_22" data-name="Path 22" d="M468,242.55s-.44,52.133.241,55.365c3.074,14.577,14.532,28.629,18.922,38.645l10.05-12.193-.823-84.24Z" transform="translate(-447.772 -153.748)" fill="#0881b7"/>
              <path id="Path_23" data-name="Path 23" d="M499.611,243.132s5.684,9.6,7.545,16.876c2.1,8.206-1.464,16.279-1.738,24.647s-1.443,60.287-.286,70.247c0,0-7.524,4.393-11.982,0-1.368.081-4.241-27.531-6.437-36.174s-2.743-13.308-2.195-25.519-2.195-27.3-6.585-32.653" transform="translate(-451.406 -154.832)" fill="#0881b7"/>
              <path id="Path_24" data-name="Path 24" d="M499.611,243.132s5.684,9.6,7.545,16.876c2.1,8.206-1.464,16.279-1.738,24.647s-1.443,60.287-.286,70.247c0,0-7.524,4.393-11.982,0-1.368.081-4.241-27.531-6.437-36.174s-2.743-13.308-2.195-25.519-2.195-27.3-6.585-32.653" transform="translate(-451.406 -154.832)" fill="none" stroke="#116b93" stroke-miterlimit="10" stroke-width="1"/>
              <path id="Path_25" data-name="Path 25" d="M492.662,259.539s7.355,6.314,13.547,6.131" transform="translate(-456.718 -160.749)" fill="none" stroke="#116b93" stroke-miterlimit="10" stroke-width="1"/>
              <path id="Path_26" data-name="Path 26" d="M456.22,179.377s2.282,17.791,4.528,25.991.592,9.564.761,13.29,2.431,4.243,2.431,4.243.086,1.663,7.846,1.264,10.188-2.714,13.327-2.209a33.958,33.958,0,0,0,7.745-.076s2.208,1.887,3.12-13.889-11.683-30.67-11.683-30.67" transform="translate(-443.574 -131.096)" fill="#043565" style="isolation: isolate"/>
              <path id="Path_27" data-name="Path 27" d="M469.656,115.184c3.7,1.83,1.392,18.057,1.392,18.057s.613,9.892,5.725,10.861l-13.067,12.005-2.771-11.959a4.4,4.4,0,0,0,2.124-1.986c.971-1.616-.923-4.386-.923-4.386s-11.9,2.735-9.413-10.033h0a2.507,2.507,0,0,1,.3-3.964,10.2,10.2,0,0,0,1.974-1.692c1.971-2.228,1.757-5.656,6.513-6.983S465.957,113.354,469.656,115.184Z" transform="translate(-442.011 -108.242)" fill="#d88f6e"/>
              <path id="Path_28" data-name="Path 28" d="M452.49,140.479a4.687,4.687,0,0,0,2.346.194,6.094,6.094,0,0,0,2.254-1.32l.041.038c-.88,1.546-3.183,1.617-4.657,1.089" transform="translate(-442.223 -117.402)" fill="#381c0e" stroke="#381c0e" stroke-linecap="round" stroke-linejoin="round" stroke-width="0.506"/>
              <path id="Path_29" data-name="Path 29" d="M455.982,105.405s.562,3.135,5.2,1.778,8.845-3.931,11.372-.328c0,0,4.8-1.05,7.526,4.308s.189,14.666-7.708,19.038l-3.808-2.727s3.192-1.792,2.523-4.711-3.735-.619-4.081,1.187a8.97,8.97,0,0,0-.717-3.809c-.891-2.4-1.609-4.081-.619-5.615a6.778,6.778,0,0,1-7.405-.957C454.58,110.541,455.982,105.405,455.982,105.405Z" transform="translate(-443.394 -105.018)" fill="#37303a"/>
              <path id="Path_30" data-name="Path 30" d="M509.514,143.281" transform="translate(-462.796 -118.818)" fill="#809630"/>
              <path id="Path_31" data-name="Path 31" d="M466.783,160.537" transform="translate(-447.384 -125.042)" fill="#809630" style="isolation: isolate"/>
              <path id="Path_32" data-name="Path 32" d="M486.019,186.789l-.24,5.881c1.98,7.861,1.68,12,1.68,12a24.039,24.039,0,0,0-6.144.286,3.872,3.872,0,0,0-1.091-1.485c-1.077-.648-1.493.627-2,.79s-1.5-1.688-4.37.489c0,0,.026.046.07.132-2.271.168-7.57.311-10.212-1.69a35.314,35.314,0,0,0-2.96-2.006c.523,2.776,1.078,5.38,1.632,7.4.114.419.213.81.308,1.195.367-.044.682-.088.924-.128,1.323-.217,7.317,1.661,11.265,2.972-.425,2.764.819,3.386.819,3.386s-.652,1.566.565.569.517.311,1.319.735a2.871,2.871,0,0,0,3.324-.868,36.585,36.585,0,0,0,12.094,2.2,9.942,9.942,0,0,0,4.052-.848c.212-1.756.4-3.914.559-6.591.912-15.777-5.232-24.962-5.232-24.962" transform="translate(-445.208 -134.316)" fill="#022b4c" opacity="0.45" style="isolation: isolate"/>
              <path id="Path_33" data-name="Path 33" d="M509.66,249.887a58.624,58.624,0,0,1,5.04,13.682c1.44,6.961-2.16,21.6-1.92,30s1.193,48.443,3.353,57.324" transform="translate(-462.848 -157.268)" fill="none" stroke="#fff" stroke-linecap="round" stroke-linejoin="round" stroke-width="0.903"/>
              <path id="Path_34" data-name="Path 34" d="M450.129,180.461c-2.78-2.256-13.689,5.776-13.689,5.776V171.506l5.694-4.651a26.356,26.356,0,0,1,7.523-4.305l6.182-2.288h0a6.53,6.53,0,0,0,10.693,2.75l3.438-3.238s.747.657,5.509,1.727,7.71,1.249,10.011,3.682,7.146,16.319,9.205,26.235-1.43,16.452-8.347,17.247a36.516,36.516,0,0,1-13.164-1.1l-1.838-10.817a35.888,35.888,0,0,1,9.117-1.015s-1.531-10.212-5.672-17.773" transform="translate(-436.44 -124.767)" fill="#043565" style="isolation: isolate"/>
              <path id="Path_35" data-name="Path 35" d="M459.727,128a.95.95,0,0,0,.033,1.3c.346.233.893.027,1.22-.46a.95.95,0,0,0-.033-1.3C460.6,127.3,460.055,127.508,459.727,128Z" transform="translate(-444.754 -113.105)" fill="#382f2c"/>
              <path id="Path_36" data-name="Path 36" d="M464.381,125.4s-1.316-2.057-3-2.232A3.228,3.228,0,0,1,464.381,125.4Z" transform="translate(-445.435 -111.564)" fill="none" stroke="#37303a" stroke-linecap="round" stroke-linejoin="round" stroke-width="1"/>
            </g>
          </g>
        </g>
        <g id="Group_9" data-name="Group 9" transform="translate(4.13 68.178)">
          <path id="Path_37" data-name="Path 37" d="M482.784,225.111s-.086,5.237,1.365,5.906,2.6-6.977,2.6-6.977Z" transform="translate(-457.284 -216.124)" fill="#074772" style="isolation: isolate"/>
          <path id="Path_38" data-name="Path 38" d="M469.6,215.4s-7.206,1.736-10.646-.318-7.262-3.461-9.326-3.423c-1.213.022-.565,1.139,1.124,1.856s2.637,1.025,2.339,1.976-2.285.773-5.105-.763c-2.522-1.373-5.349-3.613-5.062-1.119s3.972,6.985,6.177,8.138,8.59-.139,10.426-.654,14.2,2.366,14.2,2.366Z" transform="translate(-442.899 -211.659)" fill="#d88f6e"/>
          <path id="Path_39" data-name="Path 39" d="M482.988,216.547a11.044,11.044,0,0,1,1.788,5.936,17.7,17.7,0,0,1-.572,5.169,1.88,1.88,0,0,0,2.238-.366c1.028-1.052.512.237,1.3.547s3.467.279,4.011-4.1-1.91-8.537-2.977-9.029-1.322.736-1.779.94S485.427,214.23,482.988,216.547Z" transform="translate(-457.358 -212.716)" fill="#0a4e87" style="isolation: isolate"/>
        </g>
        <g id="Group_32" data-name="Group 32" transform="translate(-32.719 61.246) rotate(-22)">
          <path id="Path_37-2" data-name="Path 37" d="M482.784,225.011s-.078,4.751,1.238,5.357,2.354-6.329,2.354-6.329Z" transform="translate(-459.653 -216.86)" fill="#074772" style="isolation: isolate"/>
          <path id="Path_38-2" data-name="Path 38" d="M467.115,215.053s-6.537,1.575-9.657-.289-6.587-3.139-8.46-3.1c-1.1.02-.513,1.033,1.02,1.684s2.392.93,2.122,1.793-2.073.7-4.631-.692c-2.287-1.245-4.852-3.277-4.591-1.015s3.6,6.336,5.6,7.382,7.792-.126,9.458-.593,12.876,2.146,12.876,2.146Z" transform="translate(-442.899 -211.659)" fill="#d88f6e"/>
          <path id="Path_39-2" data-name="Path 39" d="M482.988,216.365a10.018,10.018,0,0,1,1.621,5.385,16.058,16.058,0,0,1-.519,4.689,1.705,1.705,0,0,0,2.03-.332c.933-.955.464.215,1.179.5s3.145.253,3.639-3.719-1.733-7.744-2.7-8.19-1.2.668-1.613.852S485.2,214.264,482.988,216.365Z" transform="translate(-459.739 -212.89)" fill="#0a4e87" style="isolation: isolate"/>
        </g>
      </g>
    </g>
    <g id="Group_20" data-name="Group 20" transform="translate(80.659 148.972)">
      <line id="Line_1" data-name="Line 1" x2="11.279" y2="56.084" transform="translate(36.054 54.006)" fill="none" stroke="#116b93" stroke-miterlimit="10" stroke-width="2.532"/>
      <path id="Path_40" data-name="Path 40" d="M186.18,289.341H195.4l5.647,4.972" transform="translate(-118.717 -235.335)" fill="none" stroke="#116b93" stroke-miterlimit="10" stroke-width="5.064"/>
      <g id="Group_12" data-name="Group 12" transform="translate(3.759 66.516)">
        <line id="Line_2" data-name="Line 2" y2="43.574" transform="translate(43.574)" fill="none" stroke="#0881b7" stroke-miterlimit="10" stroke-width="1.266"/>
        <line id="Line_3" data-name="Line 3" x1="30.812" y2="30.812" transform="translate(43.574 12.763)" fill="none" stroke="#0881b7" stroke-miterlimit="10" stroke-width="1.266"/>
        <line id="Line_4" data-name="Line 4" x1="43.574" transform="translate(43.574 43.574)" fill="none" stroke="#0881b7" stroke-miterlimit="10" stroke-width="1.266"/>
        <line id="Line_5" data-name="Line 5" x1="30.812" y1="30.812" transform="translate(43.574 43.574)" fill="none" stroke="#0881b7" stroke-miterlimit="10" stroke-width="1.266"/>
        <line id="Line_6" data-name="Line 6" y1="43.574" transform="translate(43.574 43.574)" fill="none" stroke="#0881b7" stroke-miterlimit="10" stroke-width="1.266"/>
        <line id="Line_7" data-name="Line 7" y1="30.812" x2="30.812" transform="translate(12.763 43.574)" fill="none" stroke="#0881b7" stroke-miterlimit="10" stroke-width="1.266"/>
        <line id="Line_8" data-name="Line 8" x2="43.574" transform="translate(0 43.574)" fill="none" stroke="#0881b7" stroke-miterlimit="10" stroke-width="1.266"/>
        <line id="Line_9" data-name="Line 9" x2="30.812" y2="30.812" transform="translate(12.763 12.763)" fill="none" stroke="#0881b7" stroke-miterlimit="10" stroke-width="1.266"/>
        <line id="Line_10" data-name="Line 10" x2="16.675" y2="40.258" transform="translate(26.899 3.317)" fill="none" stroke="#0881b7" stroke-miterlimit="10" stroke-width="1.266"/>
        <line id="Line_11" data-name="Line 11" x1="16.675" y2="40.258" transform="translate(43.574 3.317)" fill="none" stroke="#0881b7" stroke-miterlimit="10" stroke-width="1.266"/>
        <line id="Line_12" data-name="Line 12" x1="40.258" y2="16.675" transform="translate(43.574 26.899)" fill="none" stroke="#0881b7" stroke-miterlimit="10" stroke-width="1.266"/>
        <line id="Line_13" data-name="Line 13" x1="40.258" y1="16.675" transform="translate(43.574 43.574)" fill="none" stroke="#0881b7" stroke-miterlimit="10" stroke-width="1.266"/>
        <line id="Line_14" data-name="Line 14" x1="16.675" y1="40.258" transform="translate(43.574 43.574)" fill="none" stroke="#0881b7" stroke-miterlimit="10" stroke-width="1.266"/>
        <line id="Line_15" data-name="Line 15" y1="40.258" x2="16.675" transform="translate(26.899 43.574)" fill="none" stroke="#0881b7" stroke-miterlimit="10" stroke-width="1.266"/>
        <line id="Line_16" data-name="Line 16" y1="16.675" x2="40.258" transform="translate(3.317 43.574)" fill="none" stroke="#0881b7" stroke-miterlimit="10" stroke-width="1.266"/>
        <line id="Line_17" data-name="Line 17" x2="40.258" y2="16.675" transform="translate(3.317 26.899)" fill="none" stroke="#0881b7" stroke-miterlimit="10" stroke-width="1.266"/>
      </g>
      <line id="Line_18" data-name="Line 18" y1="56.084" x2="60.418" transform="translate(111.752 54.006)" fill="none" stroke="#116b93" stroke-miterlimit="10" stroke-width="5.064"/>
      <line id="Line_19" data-name="Line 19" x2="27.479" y2="71.326" transform="translate(84.273 38.764)" fill="none" stroke="#116b93" stroke-miterlimit="10" stroke-width="5.064"/>
      <g id="Path_41" data-name="Path 41" transform="translate(-104.641 -260.519)" fill="none" stroke-miterlimit="10">
        <path d="M151.974,365.786a4.823,4.823,0,1,0,0,9.646l64.419,6.619a11.442,11.442,0,1,0,0-22.883Z" stroke="none"/>
        <path d="M 216.3927612304688 359.16796875 L 151.9741058349609 365.7863159179688 C 149.3106384277344 365.7863159179688 147.1510009765625 367.9459838867188 147.1510009765625 370.609375 C 147.1510009765625 373.2734680175781 149.3106384277344 375.4324951171875 151.9741058349609 375.4324951171875 L 216.3927612304688 382.0514526367188 C 222.7118682861328 382.0514526367188 227.8348083496094 376.9284973144531 227.8348083496094 370.609375 C 227.8348083496094 364.290283203125 222.7118682861328 359.16796875 216.3927612304688 359.16796875 M 216.3278961181641 357.9020080566406 L 216.3927612304688 357.9020080566406 C 219.7871246337891 357.9020080566406 222.9783630371094 359.2237548828125 225.3785858154297 361.6238098144531 C 227.7788848876953 364.02392578125 229.1007690429688 367.2150573730469 229.1007690429688 370.609375 C 229.1007690429688 374.0037231445312 227.7788848876953 377.1949768066406 225.3786315917969 379.5952453613281 C 222.9783630371094 381.9955139160156 219.7871246337891 383.3174133300781 216.3927612304688 383.3174133300781 L 216.3278961181641 383.3174133300781 L 216.2633514404297 383.310791015625 L 151.9054870605469 376.6980895996094 C 148.5795288085938 376.6610717773438 145.8850402832031 373.9439697265625 145.8850402832031 370.609375 C 145.8850402832031 367.2748107910156 148.5795440673828 364.5577087402344 151.905517578125 364.5207214355469 L 216.2633666992188 357.9086303710938 L 216.3278961181641 357.9020080566406 Z" stroke="none" fill="#116b93"/>
      </g>
      <path id="Path_42" data-name="Path 42" d="M128.858,305.43a45.8,45.8,0,1,0,45.8,45.8A45.8,45.8,0,0,0,128.858,305.43Zm0,87.574a41.777,41.777,0,1,1,41.777-41.777A41.776,41.776,0,0,1,128.858,393Z" transform="translate(-81.525 -241.138)" fill="#033e59"/>
      <g id="Group_13" data-name="Group 13" transform="translate(42.51 105.267)">
        <circle id="Ellipse_5" data-name="Ellipse 5" cx="4.823" cy="4.823" r="4.823" fill="#116b93"/>
        <path id="Path_43" data-name="Path 43" d="M155.7,375.763a2.307,2.307,0,1,1-2.307-2.307A2.306,2.306,0,0,1,155.7,375.763Z" transform="translate(-148.571 -370.94)" fill="#0881b7"/>
      </g>
      <path id="Path_44" data-name="Path 44" d="M175.326,335.982a49.177,49.177,0,0,0-94.667,0" transform="translate(-80.659 -239.231)" fill="none" stroke="#116b93" stroke-miterlimit="10" stroke-width="5.064"/>
      <g id="Group_14" data-name="Group 14" transform="translate(150.3 66.516)">
        <line id="Line_20" data-name="Line 20" y2="43.574" transform="translate(43.574)" fill="none" stroke="#0881b7" stroke-miterlimit="10" stroke-width="1.266"/>
        <line id="Line_21" data-name="Line 21" x1="30.812" y2="30.812" transform="translate(43.574 12.763)" fill="none" stroke="#0881b7" stroke-miterlimit="10" stroke-width="1.266"/>
        <line id="Line_22" data-name="Line 22" x1="43.574" transform="translate(43.574 43.574)" fill="none" stroke="#0881b7" stroke-miterlimit="10" stroke-width="1.266"/>
        <line id="Line_23" data-name="Line 23" x1="30.812" y1="30.812" transform="translate(43.574 43.574)" fill="none" stroke="#0881b7" stroke-miterlimit="10" stroke-width="1.266"/>
        <line id="Line_24" data-name="Line 24" y1="43.574" transform="translate(43.574 43.574)" fill="none" stroke="#0881b7" stroke-miterlimit="10" stroke-width="1.266"/>
        <line id="Line_25" data-name="Line 25" y1="30.812" x2="30.812" transform="translate(12.763 43.574)" fill="none" stroke="#0881b7" stroke-miterlimit="10" stroke-width="1.266"/>
        <line id="Line_26" data-name="Line 26" x2="43.574" transform="translate(0 43.574)" fill="none" stroke="#0881b7" stroke-miterlimit="10" stroke-width="1.266"/>
        <line id="Line_27" data-name="Line 27" x2="30.812" y2="30.812" transform="translate(12.763 12.763)" fill="none" stroke="#0881b7" stroke-miterlimit="10" stroke-width="1.266"/>
        <line id="Line_28" data-name="Line 28" x2="16.675" y2="40.258" transform="translate(26.899 3.317)" fill="none" stroke="#0881b7" stroke-miterlimit="10" stroke-width="1.266"/>
        <line id="Line_29" data-name="Line 29" x1="16.675" y2="40.258" transform="translate(43.574 3.317)" fill="none" stroke="#0881b7" stroke-miterlimit="10" stroke-width="1.266"/>
        <line id="Line_30" data-name="Line 30" x1="40.258" y2="16.675" transform="translate(43.574 26.899)" fill="none" stroke="#0881b7" stroke-miterlimit="10" stroke-width="1.266"/>
        <line id="Line_31" data-name="Line 31" x1="40.258" y1="16.675" transform="translate(43.574 43.574)" fill="none" stroke="#0881b7" stroke-miterlimit="10" stroke-width="1.266"/>
        <line id="Line_32" data-name="Line 32" x1="16.675" y1="40.258" transform="translate(43.574 43.574)" fill="none" stroke="#0881b7" stroke-miterlimit="10" stroke-width="1.266"/>
        <line id="Line_33" data-name="Line 33" y1="40.258" x2="16.675" transform="translate(26.899 43.574)" fill="none" stroke="#0881b7" stroke-miterlimit="10" stroke-width="1.266"/>
        <line id="Line_34" data-name="Line 34" y1="16.675" x2="40.258" transform="translate(3.317 43.574)" fill="none" stroke="#0881b7" stroke-miterlimit="10" stroke-width="1.266"/>
        <line id="Line_35" data-name="Line 35" x2="40.258" y2="16.675" transform="translate(3.317 26.899)" fill="none" stroke="#0881b7" stroke-miterlimit="10" stroke-width="1.266"/>
      </g>
      <g id="Group_15" data-name="Group 15" transform="translate(185.509 101.724)">
        <circle id="Ellipse_6" data-name="Ellipse 6" cx="6.95" cy="6.95" r="6.95" transform="translate(0 13.524) rotate(-76.654)" fill="#116b93"/>
        <path id="Path_45" data-name="Path 45" d="M385.355,375.189a3.324,3.324,0,1,1-3.323-3.323A3.324,3.324,0,0,1,385.355,375.189Z" transform="translate(-373.666 -366.823)" fill="#0881b7"/>
      </g>
      <path id="Path_46" data-name="Path 46" d="M404.538,335.982a49.177,49.177,0,0,0-94.667,0" transform="translate(-163.329 -239.231)" fill="none" stroke="#116b93" stroke-miterlimit="10" stroke-width="5.064"/>
      <line id="Line_36" data-name="Line 36" x2="82.123" transform="translate(88.556 49.88)" fill="none" stroke="#116b93" stroke-miterlimit="10" stroke-width="5.064"/>
      <line id="Line_37" data-name="Line 37" y1="60.21" x2="41.223" transform="translate(47.333 49.88)" fill="none" stroke="#116b93" stroke-miterlimit="10" stroke-width="5.064"/>
      <g id="Group_16" data-name="Group 16" transform="translate(73.431 31.298)">
        <path id="Path_47" data-name="Path 47" d="M225.744,257.835c-2.222-4.382-27.191-5.29-29.336-2.155s-.91,11.919,9.013,13.618C210.666,270.2,227.605,261.5,225.744,257.835Z" transform="translate(-195.515 -253.823)" fill="#033e59"/>
      </g>
      <circle id="Ellipse_7" data-name="Ellipse 7" cx="11.442" cy="11.442" r="11.442" transform="translate(98.634 100.617) rotate(-9.166)" fill="#0881b7"/>
      <path id="Path_48" data-name="Path 48" d="M256.9,375.189a3.324,3.324,0,1,1-3.324-3.323A3.324,3.324,0,0,1,256.9,375.189Z" transform="translate(-141.828 -265.099)" fill="#055b89"/>
      <g id="Group_17" data-name="Group 17" transform="translate(123.837 126.609)">
        <rect id="Rectangle_5" data-name="Rectangle 5" width="4.226" height="15.467" transform="translate(0 4.206) rotate(-84.514)" fill="#0881b7"/>
      </g>
      <line id="Line_38" data-name="Line 38" x2="19.078" y2="19.362" transform="translate(111.752 110.09)" fill="none" stroke="#116b93" stroke-linecap="round" stroke-linejoin="round" stroke-width="3.798"/>
      <line id="Line_39" data-name="Line 39" x1="11.852" y2="56.084" transform="translate(47.333 54.006)" fill="none" stroke="#116b93" stroke-miterlimit="10" stroke-width="2.532"/>
      <path id="Path_49" data-name="Path 49" d="M358.07,305.43a45.8,45.8,0,1,0,45.8,45.8A45.8,45.8,0,0,0,358.07,305.43Zm0,87.574a41.777,41.777,0,1,1,41.777-41.777A41.776,41.776,0,0,1,358.07,393Z" transform="translate(-164.195 -241.138)" fill="#033e59"/>
      <path id="Path_50" data-name="Path 50" d="M368.967,335.943,342.742,268.18a3.768,3.768,0,0,1,3.514-5.127h6.765s6.168.014,7.029,4.795c.58,3.222-2.754,4.846-2.754,4.846" transform="translate(-175.092 -225.853)" fill="none" stroke="#116b93" stroke-miterlimit="10" stroke-width="5.064"/>
      <g id="Group_18" data-name="Group 18" transform="translate(13.158 50.769)">
        <rect id="Rectangle_6" data-name="Rectangle 6" width="56.002" height="6.475" fill="#033e59"/>
      </g>
      <g id="Group_19" data-name="Group 19" transform="translate(7.076)">
        <rect id="Rectangle_7" data-name="Rectangle 7" width="60.934" height="38.225" transform="translate(0 0.651)" fill="#e7b36d"/>
        <rect id="Rectangle_8" data-name="Rectangle 8" width="38.478" height="13.982" transform="translate(6.083 13.39)" fill="#e29950"/>
        <rect id="Rectangle_9" data-name="Rectangle 9" width="60.934" height="11.963" transform="translate(4.077 38.876)" fill="#e29950"/>
        <rect id="Rectangle_10" data-name="Rectangle 10" width="56.792" height="2.368" transform="translate(4.077 38.876)" fill="#e29950" opacity="0.55" style="mix-blend-mode: multiply;isolation: isolate"/>
        <path id="Path_51" data-name="Path 51" d="M141.416,205.418c3.525-.051,5.983,2.055,7.768,4.3a38.365,38.365,0,0,1,5.452,10,64.026,64.026,0,0,1,2.965,10c1.2,5.535,2.71,11.021,3.816,16.571.605,3.04,1.293,6.072,1.856,9.117.276,1.49,1.731,5.713.134,6.9l-.963,0a1.4,1.4,0,0,0,.57.579,1.338,1.338,0,0,0,1.06-.1c1.179-.767.943-2.8.754-4.145-.356-2.536-.811-5.045-1.33-7.562-1.293-6.271-2.687-12.505-4.148-18.752-1.875-8.017-3.755-16.7-9.574-23.518-1.891-2.217-4.716-4.614-8.062-3.759a1.308,1.308,0,0,0-.6.373Z" transform="translate(-109.539 -204.867)" fill="#033e59"/>
        <path id="Path_52" data-name="Path 52" d="M125.283,205.113c-2.634-.074-3.668,1.772-4.088,4.016s-.792,4.477-1.146,6.72c-.881,5.589-1.6,11.2-2.266,16.806-1.082,9.077-2.21,18.2-2.591,27.324a5.893,5.893,0,0,0,.037,2.467c.7,1.475,4.427.893,5.515-.056l-1.608,0s-2.364.487-2.839-.212a2.319,2.319,0,0,1-.029-.694c-.015-.939.049-1.882.1-2.82.195-3.377.5-6.751.819-10.121.878-9.282,1.942-18.556,3.245-27.8.356-2.529.726-5.058,1.13-7.582q.277-1.732.583-3.459c.345-1.939.775-4.254,3.852-4.193h.416S126.481,205.146,125.283,205.113Z" transform="translate(-100.146 -204.955)" fill="#033e59"/>
      </g>
    </g>
    <g id="Group_30" data-name="Group 30" transform="translate(183.659 80.04)">
      <g id="Group_21" data-name="Group 21" transform="translate(48.868 40.534)">
        <path id="Path_53" data-name="Path 53" d="M321.733,160.448c1.727.363,6.867,1.11,8.441,1.909,1.185.6,2.7,2.11,4.788,4.678l4.427,5.446,3.984,4.9a14.212,14.212,0,0,0,1.786,2.2l20.747,16.456L357,199.825l-13.663-7.095a34.8,34.8,0,0,1-8.382-6.09l-8.529-8.4Z" transform="translate(-321.733 -160.448)" fill="#f8cd28"/>
        <path id="Path_54" data-name="Path 54" d="M323.95,160.913l4.073,15.449,8.812,8.678a32.166,32.166,0,0,0,7.745,5.627l14.017,7.278,6.324-2.69.985.782L357,199.825l-13.762-7.146a34.081,34.081,0,0,1-8.2-5.961l-8.608-8.476-4.691-17.794Z" transform="translate(-321.733 -160.448)" fill="#f3f3f3" style="mix-blend-mode: multiply;isolation: isolate"/>
      </g>
      <g id="Group_22" data-name="Group 22" transform="translate(69.325 35.453)">
        <rect id="Rectangle_11" data-name="Rectangle 11" width="51.608" height="32.429" transform="translate(56.198 42.578) rotate(180)" fill="#e7b36d"/>
        <path id="Path_55" data-name="Path 55" d="M360.911,169.567l51.608,6.409v-7.6H360.911Z" transform="translate(-356.32 -158.226)" fill="#e7b36d" opacity="0.25" style="mix-blend-mode: multiply;isolation: isolate"/>
        <rect id="Rectangle_12" data-name="Rectangle 12" width="51.608" height="10.149" transform="translate(52.745 52.727) rotate(180)" fill="#efa96a"/>
        <path id="Path_56" data-name="Path 56" d="M407.117,229.248V219.1H355.51" transform="translate(-354.372 -176.52)" fill="#efa96a"/>
        <path id="Path_57" data-name="Path 57" d="M407.117,221.164V219.1H355.51" transform="translate(-354.372 -176.52)" fill="#e29950" opacity="0.25" style="mix-blend-mode: multiply;isolation: isolate"/>
        <path id="Path_58" data-name="Path 58" d="M404.251,168.375v17.5l-1.928-1.779-1.636,1.405-1.636-1.405-1.636,1.405-1.636-1.405-1.636,1.405-1.636-1.405-1.928,1.779v-17.5Z" transform="translate(-367.021 -158.226)" fill="#e29950" opacity="0.55" style="mix-blend-mode: multiply;isolation: isolate"/>
        <rect id="Rectangle_13" data-name="Rectangle 13" width="51.608" height="10.149" transform="translate(51.608 10.149) rotate(180)" fill="#e29950"/>
      </g>
      <g id="Group_29" data-name="Group 29">
        <g id="Group_23" data-name="Group 23" transform="translate(0 193.405)">
          <path id="Path_59" data-name="Path 59" d="M259.25,412.276l1.279-11.427-9.59-1.289v14.267S253.51,423.711,259.25,412.276Z" transform="translate(-247.331 -399.56)" fill="#e79e7d"/>
          <path id="Path_60" data-name="Path 60" d="M245.867,425.991s-.746-.473-.533,1.315,8.417,11.165,8.844,11.379,8.9,3.869,15.724.033a5.335,5.335,0,0,0,.579-2.218Z" transform="translate(-245.296 -409.072)" fill="#fff"/>
          <path id="Path_61" data-name="Path 61" d="M246.189,422.367c.716.7,2.781,3.19,4.795,5.575,1.08,1.279,2.142,2.525,2.973,3.452a9.3,9.3,0,0,0,1.5,1.483,4.105,4.105,0,0,0,.473.179c2.314.767,11.38,2.877,14.871-.179a38.425,38.425,0,0,1-8.382-6.822c-.441-.486-.863-.991-1.266-1.5-1.982-2.538-3.382-5.383-3.139-8.2,0,0-2.4-1.873-3.676,1.886a14.475,14.475,0,0,1-4.482-1.662,1,1,0,0,0-1.451.7,22.113,22.113,0,0,1-.537,2.282C247.48,420.846,246.931,422.048,246.189,422.367Z" transform="translate(-245.618 -405.45)" fill="#033e59"/>
          <path id="Path_62" data-name="Path 62" d="M263.231,423.414s-3.354.03-4.792,2.108" transform="translate(-250.036 -408.164)" fill="none" stroke="#fff" stroke-linecap="round" stroke-linejoin="round" stroke-width="1"/>
          <path id="Path_63" data-name="Path 63" d="M264.987,426.168s-3.056.347-4.173,2.537" transform="translate(-250.893 -409.157)" fill="none" stroke="#fff" stroke-linecap="round" stroke-linejoin="round" stroke-width="1"/>
          <path id="Path_64" data-name="Path 64" d="M261.429,438.792c2.314.767,11.38,2.877,14.871-.179a38.427,38.427,0,0,1-8.382-6.822C265.54,432.456,263.174,434.412,261.429,438.792Z" transform="translate(-251.115 -411.185)" fill="#116b93"/>
          <path id="Path_65" data-name="Path 65" d="M246.189,424.441c.716.7,2.781,3.19,4.795,5.575,2.276-3.721-.761-6.745-3.113-8.375C247.48,422.92,246.931,424.122,246.189,424.441Z" transform="translate(-245.618 -407.524)" fill="#116b93"/>
        </g>
        <g id="Group_24" data-name="Group 24" transform="translate(42.337 198.474)">
          <path id="Path_66" data-name="Path 66" d="M312.173,443.673s-.922.488-.223,2.529c.077.226,7.411.015,14.829-.066,9.393-.1,19.117-.3,16.585-2.463" transform="translate(-311.579 -420.54)" fill="#fff"/>
          <path id="Path_67" data-name="Path 67" d="M323.942,420.5l.21-10.913-10.426-2.1s.653,8.439.653,14.4C314.379,421.888,317.817,431.938,323.942,420.5Z" transform="translate(-312.314 -407.489)" fill="#e79e7d"/>
          <path id="Path_68" data-name="Path 68" d="M312.109,437.451c1.075.056,3.825.081,7.27.086,2.106.006,4.464.006,6.866,0,8.3-.019,17.059-.086,17.059-.086s-.854-1.059-5.216-1.49a15.829,15.829,0,0,1-6.48-2.013c-.335-.2-.677-.4-1.018-.622a27.425,27.425,0,0,1-6.88-6.7.513.513,0,0,0-.881.091c-1.221,2.85-4.27,7.876-8.742,2.036l-.4-.539c-.6,0-.672.57-.879,1.118a18.8,18.8,0,0,0-1.272,5.035A5.2,5.2,0,0,0,312.109,437.451Z" transform="translate(-311.518 -414.316)" fill="#033e59"/>
          <path id="Path_69" data-name="Path 69" d="M312.109,441.744c1.075.056,3.825.081,7.27.086l.632-.086s-1.6-4.71-8.472-3.084A5.2,5.2,0,0,0,312.109,441.744Z" transform="translate(-311.518 -418.608)" fill="#116b93"/>
          <path id="Path_70" data-name="Path 70" d="M334.555,441.435c8.3-.019,17.059-.086,17.059-.086s-.853-1.059-5.216-1.49a15.83,15.83,0,0,1-6.48-2.013c-.335-.2-.677-.4-1.018-.622C337,437.945,334.884,439.231,334.555,441.435Z" transform="translate(-319.827 -418.214)" fill="#116b93"/>
          <path id="Path_71" data-name="Path 71" d="M335.826,434.267a8.21,8.21,0,0,0-2.447,2.217" transform="translate(-319.402 -417.147)" fill="none" stroke="#fff" stroke-linecap="round" stroke-linejoin="round" stroke-width="1"/>
          <path id="Path_72" data-name="Path 72" d="M333.52,432.2a7.1,7.1,0,0,0-2.238,2.118" transform="translate(-318.646 -416.401)" fill="none" stroke="#fff" stroke-linecap="round" stroke-linejoin="round" stroke-width="1"/>
        </g>
        <g id="Group_28" data-name="Group 28" transform="translate(2.149)">
          <g id="Group_26" data-name="Group 26" transform="translate(25.468)">
            <path id="Path_73" data-name="Path 73" d="M314.378,117.96a14.107,14.107,0,0,0-2.215-7.213,7.737,7.737,0,0,0-5.958-2.925c-7.881.054-9.559,7.272-9.559,9.169,0,.249-2.084,1.069-2.533,3.434a4.059,4.059,0,0,0,1.069,3.545,7.675,7.675,0,0,1,1.853,7.143c-2.174,7.942-8.541,7.272-8.541,7.272l19.7,4.675h0a9.158,9.158,0,0,1-1.828-7.757l.343-1.547-.031-.1a6.582,6.582,0,0,0,1.1-.272,9.406,9.406,0,0,0,5.3-5.194,15.135,15.135,0,0,0,.9-2.672A23.7,23.7,0,0,0,314.378,117.96Z" transform="translate(-288.494 -100.933)" fill="#d88f6e"/>
            <g id="Group_25" data-name="Group 25" transform="translate(13.719 15.393)">
              <path id="Path_74" data-name="Path 74" d="M320.612,127.157s.038,2.887,1.238,4.213a12.265,12.265,0,0,1-1.31.884" transform="translate(-313.771 -123.3)" fill="none" stroke="#c96b4b" stroke-linecap="round" stroke-linejoin="round" stroke-width="0.653"/>
              <path id="Path_75" data-name="Path 75" d="M311.993,126.484c.051.585.429,1.03.845.994s.712-.54.661-1.125-.429-1.03-.845-.994S311.942,125.9,311.993,126.484Z" transform="translate(-310.686 -122.651)" fill="#382f2c"/>
              <path id="Path_76" data-name="Path 76" d="M313.689,121.642s-2.316-.775-3.737.146A3.229,3.229,0,0,1,313.689,121.642Z" transform="translate(-309.952 -121.124)" fill="none" stroke="#37303a" stroke-linecap="round" stroke-linejoin="round" stroke-width="1"/>
              <path id="Path_77" data-name="Path 77" d="M318.262,137.258a11.084,11.084,0,0,0,2.56-.181,2.64,2.64,0,0,1,.034.5,2.709,2.709,0,0,1-5.414-.194,2.569,2.569,0,0,1,.082-.552A10.719,10.719,0,0,0,318.262,137.258Z" transform="translate(-311.932 -126.79)" fill="#fff"/>
              <path id="Path_78" data-name="Path 78" d="M326.5,126.985c-.051.585-.428,1.03-.844.994s-.712-.539-.661-1.124.428-1.03.844-.994S326.55,126.4,326.5,126.985Z" transform="translate(-315.375 -122.832)" fill="#382f2c"/>
              <path id="Path_79" data-name="Path 79" d="M323.234,121.918s2.109-.483,3.268.4A2.9,2.9,0,0,0,323.234,121.918Z" transform="translate(-314.742 -121.298)" fill="none" stroke="#37303a" stroke-linecap="round" stroke-linejoin="round" stroke-width="1"/>
            </g>
            <path id="Path_80" data-name="Path 80" d="M290.345,117.738c1.432,2.442,4.009,3.938,5.485,6.355a12.978,12.978,0,0,1,.671,1.413c.077.166.166.2.262.173a1.417,1.417,0,0,0,.332-.237,3.02,3.02,0,0,0,.6-.7,1.554,1.554,0,0,0,.128-.224c.006-.006.013-.013.013-.019v-.006a.973.973,0,0,0,.1-.256,9.2,9.2,0,0,0,.256-1.848c-.064-.345-.409-.55-.722-.7-.058-.032-.121-.058-.173-.09a.831.831,0,0,0-.109-.051h-.006a.131.131,0,0,0-.058-.032,4.418,4.418,0,0,1-.722-.5,5.336,5.336,0,0,1-1.132-1.112l-.013-.013-.058-.077a4.508,4.508,0,0,1-.4-.678c-.006-.006-.006-.019-.013-.026a3.959,3.959,0,0,1-.313-2.417c.416-2.212,2.161-2.717,3.433-2.2a.536.536,0,0,1,.211.1.281.281,0,0,1,.045.038l.013.013v.006a4.368,4.368,0,0,1,.729,1.093c.006,0,.006.006.006.013.3.563.607,1.1.946,1.144h.006v-.006c.237-.78-.1-3.689.326-4.507a4.253,4.253,0,0,1,.537-.812,3.923,3.923,0,0,1,1.445-1.119,5.69,5.69,0,0,1,2.864-.448,10.041,10.041,0,0,1,2.4.518l.166.058a18.428,18.428,0,0,0,5.115,1.074,8.448,8.448,0,0,0,4.456-1.061,5.027,5.027,0,0,0,.69-.409,1.986,1.986,0,0,0,.332-.281,4.063,4.063,0,0,0,1.08-2.327,22.472,22.472,0,0,0-2.628.16,4.56,4.56,0,0,0-.339-1.8c-.345-1.3-.69-2.6-1.049-3.9a11.293,11.293,0,0,0-5.332-4.552c-.2-.083-.416-.16-.626-.23a20.494,20.494,0,0,0-6.374.09,26.776,26.776,0,0,0-4.635,1.272,7.422,7.422,0,0,0-3.19,5.46c-.032.32.058,2.206-.243,2.3a7.914,7.914,0,0,0-4.75,3.964,6.785,6.785,0,0,0-.281.62A7.882,7.882,0,0,0,290.345,117.738Z" transform="translate(-288.782 -97.047)" fill="#37303a"/>
          </g>
          <path id="Path_81" data-name="Path 81" d="M302.632,161.3l-31.574-3.165c4.423-3.629,13.552-6,13.552-6l3.807-.955s5.166,6.02,11.448,2.086c.356.192,4.539,2.3,4.539,2.3h0a26.559,26.559,0,0,1,5.849,3.645Z" transform="translate(-256.737 -116.57)" fill="#f8cd28"/>
          <path id="Path_82" data-name="Path 82" d="M303.34,250.508s5.686,30.109,2.489,56.321c-2.877,23.176-4.347,49.446-4.347,49.446s-6.773,2.35-12.527,0a256.2,256.2,0,0,1,1.908-35.956,70.71,70.71,0,0,0-1.047-25.544c-2.257-10.16-4.217-18.769-4.217-21.57-2.238,7.992-9.392,37.674-12.749,46.145-3.356,9.43-9.75,24.762-11.348,33.3-5.333,1.793-12.127-1.44-12.785-2.009-.54-.467,2.6-16.609,10.384-35.285,3.127-7.506,1.669-11.262,1.911-19.39.578-19.383.412-44.788,5.248-49.115,7.672,1.279,25.87,6.244,36.578,1.289C303.317,250.375,303.34,250.508,303.34,250.508Z" transform="translate(-248.658 -151.076)" fill="#116b93"/>
          <path id="Path_83" data-name="Path 83" d="M311.655,162.512l-9.22.471-2.529.129-9.493.485-2.766.143-.639.074-11.487,1.307-4.463-6.033,12.981-5.271,6.87,1.465a7.6,7.6,0,0,0,2.474,2.015,3.7,3.7,0,0,0,4.241-.546l.031-.029,3.275-1.673,10.968,4.916Z" transform="translate(-256.737 -117.522)" fill="#f8cd28"/>
          <path id="Path_84" data-name="Path 84" d="M308.542,202.742a27.019,27.019,0,0,1,.471-7.414c.174-.87.379-1.705.612-2.516.156-.55.323-1.087.5-1.612a43.387,43.387,0,0,0,1.889-18.851c-.531-4.385-1.045-8.392-1.045-8.392l-35.43,3.416-3.428.331v11.8s.267,3.22.5,7.332c.166,2.937.317,6.328.337,9.321a45.337,45.337,0,0,1-.264,6.138c0,2.89.565,5.487-.985,8.1-.664,1.118-1.573,2.161-1.746,3.449a3.274,3.274,0,0,0,.579,2.32c1.157,1.611,2.016,2.644,3.919,2.965,1.21.2,2.425.377,3.637.566,6.156.958,12.339,2.107,18.59,2.144a33.9,33.9,0,0,0,8.862-.891,14.045,14.045,0,0,0,4.053-1.761c1.553-.995,1.682-2.565,2.2-4.274a6.6,6.6,0,0,0-.237-5.3,16.3,16.3,0,0,0-1.892-2.066,5.675,5.675,0,0,1-.908-2.883Q308.609,203.681,308.542,202.742Z" transform="translate(-256.327 -121.18)" fill="#f8cd28"/>
          <path id="Path_85" data-name="Path 85" d="M272.21,186.836a32.268,32.268,0,0,0,2.115,3.355c6.617,5,26.042,12.432,26.042,12.432l7.778.115a27.019,27.019,0,0,1,.471-7.414c.174-.869.379-1.705.612-2.516l-3.708-.584-30.381-24.855-4.188-3.425a19.526,19.526,0,0,0-1.526,4.519A26.007,26.007,0,0,0,272.21,186.836Z" transform="translate(-255.93 -121.175)" fill="#f3f3f3" style="mix-blend-mode: multiply;isolation: isolate"/>
          <path id="Path_86" data-name="Path 86" d="M364.6,217.431a7.35,7.35,0,0,0,2.676,0c.573-.318,6.371-3.631,8.027-3.567.318.956-.128,1.621-2.8,3.709-.254.5-1.529,1.706,1.338,3.171s6.179,2.994,6.434,3.44c.407.6.054,1.683-3.145.074a6.329,6.329,0,0,0-2.286-.664c-.6-.052-1.04,0-1,.335.064.573,3.44,3.058,3.5,3.7s-.191,2.038-3.058.7a4.178,4.178,0,0,1-3.312.063c-1.593.765-2.867.637-3.5-.955a8.222,8.222,0,0,0-2.293-1.975,2.108,2.108,0,0,1-.955-.956l-1.848-1.4Z" transform="translate(-289.67 -139.179)" fill="#d88f6e"/>
          <path id="Path_87" data-name="Path 87" d="M278.077,193.392c.18.1.359.208.542.311.208.118.415.238.625.356.477.27.956.539,1.439.8s.946.519,1.419.774c.766.412,1.532.819,2.289,1.215.505.263,1.007.524,1.5.777.188.1.376.194.561.289.27.137.539.275.806.407l.88.446c.146.073.289.146.432.216l.32.16c.079.039.154.079.233.115.154.078.306.154.457.227.135.067.269.135.4.2.21.1.415.2.617.3.1.045.188.093.281.137.208.1.412.2.609.3.132.065.261.127.39.188.208.1.407.2.6.289,2.089.993,5.125,2.513,7.43,2.7l28.456,1.4,1.327-6.326-26.749-5.991a5.521,5.521,0,0,1-2.564-1.355l-31.36-29.273a5.2,5.2,0,0,0-2.836,3.52c-.051.171-.1.35-.146.533a21.648,21.648,0,0,0-.617,4.858A25.527,25.527,0,0,0,278.077,193.392Z" transform="translate(-254.704 -120.495)" fill="#f8cd28"/>
          <path id="Path_88" data-name="Path 88" d="M266.044,166.609c.048-.183.1-.362.146-.533a5.871,5.871,0,0,1,1.547-2.642,6.832,6.832,0,0,0-.268.745c-.051.171-.1.35-.146.533a21.623,21.623,0,0,0-.617,4.858,25.529,25.529,0,0,0,12.65,22.421l.542.311c.208.118.415.238.625.356.477.269.956.538,1.439.8s.946.519,1.419.774c.766.413,1.532.82,2.289,1.215.505.264,1.007.525,1.5.777.188.1.376.193.561.288.27.137.539.276.806.407q.446.227.88.446c.146.073.289.146.432.216l.32.16c.079.04.154.079.233.115.154.079.306.154.457.228.135.067.269.134.4.2l.617.3c.1.045.188.093.281.137.208.1.412.2.609.3.132.065.261.126.39.188.208.1.407.2.6.289,2.089.993,5.125,2.512,7.43,2.7l27.178,3.3-28.456-1.4c-2.305-.188-5.341-1.708-7.43-2.7-.194-.093-.393-.188-.6-.289-.129-.061-.258-.123-.39-.188-.2-.1-.4-.2-.609-.3-.093-.045-.185-.092-.281-.137-.2-.1-.407-.2-.617-.3-.135-.065-.269-.132-.4-.2-.152-.073-.3-.149-.457-.227-.079-.036-.154-.076-.233-.115l-.32-.16c-.143-.07-.286-.143-.432-.216l-.88-.446c-.267-.132-.536-.269-.806-.407-.185-.1-.373-.191-.561-.289-.5-.253-1-.513-1.5-.777-.757-.4-1.523-.8-2.289-1.215-.474-.255-.948-.513-1.419-.774s-.962-.533-1.439-.8c-.21-.118-.417-.238-.625-.356-.182-.1-.362-.207-.542-.311a25.528,25.528,0,0,1-12.65-22.42A21.613,21.613,0,0,1,266.044,166.609Z" transform="translate(-254.704 -120.991)" fill="#f3f3f3" style="mix-blend-mode: multiply;isolation: isolate"/>
          <path id="Path_89" data-name="Path 89" d="M283.812,261.465a13.206,13.206,0,0,1-5.513,9.963,6.078,6.078,0,0,1-2.961,1.224" transform="translate(-258.281 -156.348)" fill="none" stroke="#074966" stroke-miterlimit="10" stroke-width="0.903"/>
          <g id="Group_27" data-name="Group 27" transform="translate(26.336)">
            <path id="Path_90" data-name="Path 90" d="M309.568,116.587c.467.2.953.4,1.47.588a30.413,30.413,0,0,0,7.333,1.8c.013,0,.026.006.038.006h.006a20.549,20.549,0,0,0,2.577.115,1.392,1.392,0,0,0,.166-.006c.243,0,.479-.013.716-.032a14.1,14.1,0,0,0,1.956-.249,9.915,9.915,0,0,0,5.031-2.135,2.35,2.35,0,0,0,.818-1.707c-.045-1.285-1.317-1.3-2.327-1.407-.262-.026-.511-.038-.767-.038a22.473,22.473,0,0,0-2.628.16,20.259,20.259,0,0,1-2.27.121l-1.164.269-8.177,1.88Z" transform="translate(-296.962 -102.987)" fill="#116b93"/>
            <path id="Path_91" data-name="Path 91" d="M290.06,110.219c.083.038.166.083.249.115a17.6,17.6,0,0,0,7.007,1.362c1.164.019,2.378-.026,3.612-.121.985-.083,1.988-.2,3-.339,1.285-.179,2.583-.4,3.874-.652,2.084-.409,4.143-.889,6.086-1.375q.681-.173,1.343-.345a4.726,4.726,0,0,0,1.566-.85c.019-.1.038-.185.051-.275a4.56,4.56,0,0,0-.339-1.8c-.345-1.3-.69-2.6-1.048-3.9-.173-.652-.345-1.3-.524-1.95a2.964,2.964,0,0,0-.652-1.394,2.571,2.571,0,0,0-1.017-.543,19.677,19.677,0,0,0-3.766-.9,20.494,20.494,0,0,0-6.374.09,26.776,26.776,0,0,0-4.635,1.272c-1.592.569-3.152,1.247-4.705,1.918a2.729,2.729,0,0,0-1.937,2.123C291.153,104.772,289.216,109.8,290.06,110.219Z" transform="translate(-289.851 -97.047)" fill="#0881b7"/>
          </g>
          <path id="Path_92" data-name="Path 92" d="M306.439,281.855s4.279-9.21,5.914-11.022" transform="translate(-269.498 -159.727)" fill="none" stroke="#074966" stroke-miterlimit="10" stroke-width="0.903"/>
          <path id="Path_93" data-name="Path 93" d="M269.167,250.63s-5.831,8.25-4.553,58.906c0,0-.426,5.583-1.7,7.608s-7.566,14.6-11.828,34.417" transform="translate(-249.532 -152.44)" fill="none" stroke="#074966" stroke-miterlimit="10" stroke-width="0.903"/>
        </g>
      </g>
    </g>
  </g>
</svg>
