<svg xmlns="http://www.w3.org/2000/svg" width="20.403" height="20.403" viewBox="0 0 20.403 20.403"><defs><style>.a{fill:#228bc4;}</style></defs><g transform="translate(-3.007 -3.009)"><path class="a" d="M42.482,46.964A2.482,2.482,0,1,0,40,44.482,2.485,2.485,0,0,0,42.482,46.964Zm0-3.861A1.379,1.379,0,1,1,41.1,44.482,1.38,1.38,0,0,1,42.482,43.1Z" transform="translate(-26.791 -28.238)"/><path class="a" d="M24.482,24.965A2.482,2.482,0,1,0,22,22.483,2.485,2.485,0,0,0,24.482,24.965Zm0-3.861A1.379,1.379,0,1,1,23.1,22.483,1.38,1.38,0,0,1,24.482,21.1Z" transform="translate(-13.755 -12.306)"/><path class="a" d="M24.213,30.915a.552.552,0,0,0,.774-.1l7.722-9.928a.552.552,0,1,0-.871-.677l-7.722,9.928A.551.551,0,0,0,24.213,30.915Z" transform="translate(-15.203 -12.306)"/><path class="a" d="M22.123,10.822l.138-1.756a1.665,1.665,0,0,0-.937-1.624l-1.59-.758-.758-1.59a1.666,1.666,0,0,0-1.623-.937L15.6,4.3l-1.451-1a1.666,1.666,0,0,0-1.875,0l-1.451,1L9.065,4.157a1.669,1.669,0,0,0-1.624.937l-.758,1.59-1.59.758a1.665,1.665,0,0,0-.937,1.624l.138,1.756-1,1.451a1.664,1.664,0,0,0,0,1.875l1,1.451-.138,1.756a1.665,1.665,0,0,0,.937,1.624l1.59.758.758,1.59a1.668,1.668,0,0,0,1.623.937l1.756-.138,1.451,1a1.665,1.665,0,0,0,1.875,0l1.612-1.109a.552.552,0,0,0-.625-.909l-1.612,1.109a.554.554,0,0,1-.625,0l-1.773-1.219-2.145.169a.547.547,0,0,1-.541-.312l-.926-1.943-1.943-.926a.554.554,0,0,1-.312-.541L5.425,15.3,4.206,13.522a.554.554,0,0,1,0-.625l1.219-1.773L5.256,8.979a.555.555,0,0,1,.312-.541l1.943-.926.926-1.943a.546.546,0,0,1,.541-.312l2.145.169L12.9,4.207a.554.554,0,0,1,.625,0l1.773,1.219,2.145-.169a.55.55,0,0,1,.541.312l.926,1.943,1.943.926a.554.554,0,0,1,.312.541l-.169,2.145L22.212,12.9a.554.554,0,0,1,0,.625L20.993,15.3l.169,2.145a.555.555,0,0,1-.312.541l-1.943.926-.926,1.943a.557.557,0,0,1-.541.312l-.327-.026a.552.552,0,1,0-.086,1.1l.326.026a1.664,1.664,0,0,0,1.624-.937l.758-1.59,1.59-.758a1.665,1.665,0,0,0,.937-1.624L22.124,15.6l1-1.451a1.664,1.664,0,0,0,0-1.875Z" transform="translate(0)"/></g></svg>