<svg xmlns="http://www.w3.org/2000/svg" width="19.176" height="20" viewBox="0 0 19.176 20"><defs><style>.a{fill:#228bc4;}</style></defs><g transform="translate(71.826 -102.747)"><path class="a" d="M40.3,29.267,31.133,20.1A.3.3,0,0,0,30.9,20h-.167a.3.3,0,0,0-.233.1l-9.2,9.167a.3.3,0,0,0-.1.233V39.667a.315.315,0,0,0,.333.333h6.833a.315.315,0,0,0,.333-.333V34.333a2.006,2.006,0,0,1,2-2h.167a2.006,2.006,0,0,1,2,2v5.333A.315.315,0,0,0,33.2,40h6.833a.315.315,0,0,0,.333-.333V29.5C40.4,29.4,40.333,29.333,40.3,29.267Z" transform="translate(-93.026 82.747)"/></g></svg>