<svg xmlns="http://www.w3.org/2000/svg" width="20.993" height="20.724" viewBox="0 0 20.993 20.724"><defs><style>.a{fill:#228bc4;}</style></defs><g transform="translate(-5.763 -6)"><path class="a" d="M11.685,21.342A2.959,2.959,0,0,0,9.532,18.5V6.806a.806.806,0,0,0-1.612,0V18.5a2.953,2.953,0,0,0,0,5.688v1.727a.806.806,0,0,0,1.612,0V24.186A2.959,2.959,0,0,0,11.685,21.342ZM8.726,22.695a1.347,1.347,0,1,1,1.347-1.347A1.347,1.347,0,0,1,8.726,22.695Z" transform="translate(0 0)"/><path class="a" d="M37.865,21.342A2.959,2.959,0,0,0,35.712,18.5V6.806a.806.806,0,1,0-1.612,0V18.5a2.953,2.953,0,0,0,0,5.688v1.727a.806.806,0,0,0,1.612,0V24.186A2.959,2.959,0,0,0,37.865,21.342Zm-2.959,1.353a1.347,1.347,0,1,1,1.347-1.347A1.347,1.347,0,0,1,34.906,22.695Z" transform="translate(-11.109 0)"/><path class="a" d="M18.86,11.387a2.959,2.959,0,0,0,2.153,2.844V25.923a.806.806,0,1,0,1.612,0V14.231a2.953,2.953,0,0,0,0-5.688V6.816a.806.806,0,1,0-1.612,0V8.543A2.959,2.959,0,0,0,18.86,11.387Zm2.959-1.353a1.347,1.347,0,1,1-1.347,1.347A1.347,1.347,0,0,1,21.819,10.034Z" transform="translate(-5.557 -0.004)"/></g></svg>