<svg xmlns="http://www.w3.org/2000/svg" width="18.446" height="18.446" viewBox="0 0 18.446 18.446"><defs><style>.a{fill:#c52874;}</style></defs><g transform="translate(-5 -5)"><path class="a" d="M29.771,55.058a.41.41,0,0,0-.4-.339H19.643a.41.41,0,0,0-.4.339l-1.3,7.436a.41.41,0,0,0,.4.48H30.667a.41.41,0,0,0,.4-.48Zm-10.941,7.1,1.157-6.616h9.036l1.157,6.616Z" transform="translate(-10.282 -39.528)"/><path class="a" d="M34.01,65.136h6.065a.307.307,0,1,0,0-.615H34.01a.307.307,0,1,0,0,.615Z" transform="translate(-22.82 -47.322)"/><path class="a" d="M33.017,73.974H39.49a.307.307,0,0,0,0-.615H33.017a.307.307,0,1,0,0,.615Z" transform="translate(-22.03 -54.348)"/><path class="a" d="M38.9,82.2h-6.88a.307.307,0,0,0,0,.615H38.9a.307.307,0,1,0,0-.615Z" transform="translate(-21.241 -61.375)"/><path class="a" d="M21.5,23.859H6.95A1.95,1.95,0,0,0,5,25.81v5.732a1.95,1.95,0,0,0,1.95,1.95h.655l.544-3.11A1.227,1.227,0,0,1,9.36,29.364h9.725A1.227,1.227,0,0,1,20.3,30.382l.544,3.11H21.5a1.95,1.95,0,0,0,1.95-1.95V25.81a1.95,1.95,0,0,0-1.95-1.95Zm-.209,2.884a.725.725,0,1,1,.725-.725.725.725,0,0,1-.725.725Z" transform="translate(0 -14.994)"/><path class="a" d="M34.067,8.046V5.41a.41.41,0,0,0-.41-.41H23.41a.41.41,0,0,0-.41.41V8.046h.82V5.82h9.428V8.046Z" transform="translate(-14.311 0)"/></g></svg>