<svg xmlns="http://www.w3.org/2000/svg" width="27.252" height="29.562" viewBox="0 0 27.252 29.562">
  <g id="Order_Placed_Default" data-name="Order Placed Default" transform="translate(-67.441 -30.98)" opacity="0.5">
    <path id="Path_432" data-name="Path 432" d="M310.687,697.91h-8.372a.866.866,0,0,0,0,1.732h8.372a.866.866,0,0,0,0-1.732Z" transform="translate(-227.079 -647.183)" fill="rgba(0,0,0,0.17)"/>
    <path id="Path_433" data-name="Path 433" d="M310.687,814.91h-8.372a.866.866,0,0,0,0,1.732h8.372a.866.866,0,0,0,0-1.732Z" transform="translate(-227.079 -760.719)" fill="rgba(0,0,0,0.17)"/>
    <path id="Path_434" data-name="Path 434" d="M185.307,814.91a.866.866,0,1,0,.866.866A.866.866,0,0,0,185.307,814.91Z" transform="translate(-113.536 -760.719)" fill="rgba(0,0,0,0.17)"/>
    <path id="Path_435" data-name="Path 435" d="M301.449,581.768a.866.866,0,0,0,.866.866h8.372a.866.866,0,0,0,0-1.732h-8.372A.866.866,0,0,0,301.449,581.768Z" transform="translate(-227.079 -533.64)" fill="rgba(0,0,0,0.17)"/>
    <ellipse id="Ellipse_37" data-name="Ellipse 37" cx="0.866" cy="0.866" rx="0.866" ry="0.866" transform="translate(70.905 50.727)" fill="rgba(0,0,0,0.17)"/>
    <path id="Path_436" data-name="Path 436" d="M90.45,30.98H71.6a4.164,4.164,0,0,0-4.157,4.157V59.676a.866.866,0,0,0,.866.866H87.072a.866.866,0,0,0,.866-.866v-12.7h5.889a.866.866,0,0,0,.866-.866V35.224A4.254,4.254,0,0,0,90.45,30.98Zm-4.244,4.244V58.81H69.173V35.137A2.431,2.431,0,0,1,71.6,32.712H87.033A4.219,4.219,0,0,0,86.206,35.224Zm6.755,10.017H87.938V35.224a2.512,2.512,0,1,1,5.023,0Z" transform="translate(0 0)" fill="rgba(0,0,0,0.17)"/>
    <path id="Path_437" data-name="Path 437" d="M184.441,581.768a.866.866,0,1,0,.866-.866A.866.866,0,0,0,184.441,581.768Z" transform="translate(-113.536 -533.64)" fill="rgba(0,0,0,0.17)"/>
    <path id="Path_438" data-name="Path 438" d="M254.8,165.824a4.413,4.413,0,0,0,.825-5.1l1.237-1.236a.866.866,0,1,0-1.225-1.225l-1.087,1.088a4.413,4.413,0,1,0,.251,6.473Zm-5.016-5.016a2.681,2.681,0,0,1,3.535-.226l-1.533,1.533-.475-.475a.866.866,0,0,0-1.225,1.224l1.087,1.087a.867.867,0,0,0,1.225,0l1.886-1.887a2.681,2.681,0,1,1-4.5-1.258Z" transform="translate(-174.5 -123.269)" fill="#989797"/>
  </g>
</svg>
