<svg xmlns="http://www.w3.org/2000/svg" width="29.145" height="29.145" viewBox="0 0 29.145 29.145">
  <g id="Order_Processed_Default" data-name="Order Processed Default" opacity="0.5">
    <path id="Path_445" data-name="Path 445" d="M16.508,29.145H12.637A1.14,1.14,0,0,1,11.5,28.007v-1.7A12.029,12.029,0,0,1,8.45,25.043l-1.2,1.2a1.14,1.14,0,0,1-1.61,0L2.9,23.508a1.14,1.14,0,0,1,0-1.61l1.2-1.2a12.027,12.027,0,0,1-1.264-3.049h-1.7A1.14,1.14,0,0,1,0,16.508V12.637A1.14,1.14,0,0,1,1.138,11.5h1.7A12.024,12.024,0,0,1,4.1,8.444l-1.2-1.2a1.14,1.14,0,0,1,0-1.61L5.637,2.9a1.14,1.14,0,0,1,1.61,0L8.44,4.093A12.025,12.025,0,0,1,11.5,2.824V1.138A1.14,1.14,0,0,1,12.637,0h3.871a1.14,1.14,0,0,1,1.138,1.138V2.82A12.032,12.032,0,0,1,20.71,4.088L21.9,2.9a1.14,1.14,0,0,1,1.61,0l2.737,2.737a1.14,1.14,0,0,1,0,1.61L25.057,8.435A12.031,12.031,0,0,1,26.325,11.5h1.681a1.14,1.14,0,0,1,1.138,1.138v3.871a1.14,1.14,0,0,1-1.138,1.138H26.322a12.034,12.034,0,0,1-1.27,3.058L26.245,21.9a1.14,1.14,0,0,1,0,1.61l-2.737,2.737a1.14,1.14,0,0,1-1.61,0l-1.2-1.2a12.031,12.031,0,0,1-3.054,1.263v1.7A1.14,1.14,0,0,1,16.508,29.145ZM8.364,23.754a.569.569,0,0,1,.306.089,10.9,10.9,0,0,0,3.52,1.46.569.569,0,0,1,.446.556v2.148h3.871V25.862a.569.569,0,0,1,.447-.556,10.907,10.907,0,0,0,3.526-1.458.569.569,0,0,1,.708.078L22.7,25.44,25.44,22.7l-1.511-1.511a.569.569,0,0,1-.077-.709,10.906,10.906,0,0,0,1.465-3.529.569.569,0,0,1,.556-.446h2.133V12.637h-2.13a.569.569,0,0,1-.556-.447,10.9,10.9,0,0,0-1.463-3.534.57.57,0,0,1,.077-.709L25.44,6.442,22.7,3.7,21.2,5.21a.57.57,0,0,1-.709.077,10.9,10.9,0,0,0-3.534-1.463.569.569,0,0,1-.447-.556V1.138H12.637V3.272a.569.569,0,0,1-.446.556A10.9,10.9,0,0,0,8.662,5.293a.569.569,0,0,1-.709-.077L6.442,3.7,3.7,6.442,5.219,7.956a.569.569,0,0,1,.078.708A10.907,10.907,0,0,0,3.839,12.19a.569.569,0,0,1-.556.447H1.138v3.871H3.286a.569.569,0,0,1,.556.446,10.9,10.9,0,0,0,1.46,3.52.569.569,0,0,1-.077.709L3.7,22.7l2.737,2.737,1.52-1.52A.569.569,0,0,1,8.364,23.754Z" fill="rgba(0,0,0,0.16)"/>
    <path id="Path_446" data-name="Path 446" d="M118.375,126.636a8.309,8.309,0,1,1,4.062-15.56.569.569,0,1,1-.557.993,7.172,7.172,0,1,0,2.913,3.055.569.569,0,1,1,1.018-.509,8.308,8.308,0,0,1-7.437,12.021Z" transform="translate(-103.802 -103.756)" fill="rgba(0,0,0,0.16)"/>
    <path id="Path_447" data-name="Path 447" d="M344.921,153.15a.57.57,0,1,1,.4-.167A.573.573,0,0,1,344.921,153.15Z" transform="translate(-324.75 -143.359)" fill="rgba(0,0,0,0.16)"/>
    <path id="Path_448" data-name="Path 448" d="M172.818,190.719a.569.569,0,0,1-.4-.167l-3.6-3.6a.569.569,0,0,1,0-.8l2.042-2.042a.57.57,0,0,1,.805,0l1.155,1.156,2.762-2.762a.569.569,0,0,1,.8,0l2.042,2.042a.569.569,0,0,1,0,.8l-5.207,5.207A.57.57,0,0,1,172.818,190.719Zm-2.795-4.169,2.795,2.795,4.4-4.4-1.237-1.237-2.762,2.762a.569.569,0,0,1-.805,0l-1.156-1.156Z" transform="translate(-159.048 -171.953)" fill="#989797"/>
  </g>
</svg>
