<svg xmlns="http://www.w3.org/2000/svg" xmlns:xlink="http://www.w3.org/1999/xlink" width="395.315" height="507.166" viewBox="0 0 395.315 507.166">
  <defs>
    <filter id="Path_428" x="0" y="0" width="395.315" height="507.166" filterUnits="userSpaceOnUse">
      <feOffset dy="1" input="SourceAlpha"/>
      <feGaussianBlur stdDeviation="10" result="blur"/>
      <feFlood flood-opacity="0.059"/>
      <feComposite operator="in" in2="blur"/>
      <feComposite in="SourceGraphic"/>
    </filter>
  </defs>
  <g transform="matrix(1, 0, 0, 1, 0, 0)" filter="url(#Path_428)">
    <path id="Path_428-2" data-name="Path 428" d="M-5279.8,2284.372V1958.578h-335.315v325.794a9.31,9.31,0,0,1,9.311,9.31,9.31,9.31,0,0,1-9.311,9.31v102.751h0a8.2,8.2,0,0,1,8.2-8.109,8.2,8.2,0,0,1,8.2,8.109h3.521a8.2,8.2,0,0,1,8.2-8.109,8.2,8.2,0,0,1,8.2,8.109h3.521a8.2,8.2,0,0,1,8.2-8.109,8.2,8.2,0,0,1,8.2,8.109h3.522a8.2,8.2,0,0,1,8.2-8.109,8.2,8.2,0,0,1,8.2,8.109h3.521a8.2,8.2,0,0,1,8.2-8.109,8.2,8.2,0,0,1,8.2,8.109h3.521a8.2,8.2,0,0,1,8.2-8.109,8.2,8.2,0,0,1,8.2,8.109h3.521a8.2,8.2,0,0,1,8.2-8.109,8.2,8.2,0,0,1,8.2,8.109h3.521a8.2,8.2,0,0,1,8.2-8.109,8.2,8.2,0,0,1,8.2,8.109h3.521a8.2,8.2,0,0,1,8.2-8.109,8.2,8.2,0,0,1,8.2,8.109h3.521a8.2,8.2,0,0,1,8.2-8.109,8.2,8.2,0,0,1,8.2,8.109h3.521a8.2,8.2,0,0,1,8.2-8.109,8.2,8.2,0,0,1,8.2,8.109h3.521a8.2,8.2,0,0,1,8.2-8.109,8.2,8.2,0,0,1,8.2,8.109h3.521a8.2,8.2,0,0,1,8.2-8.109,8.2,8.2,0,0,1,8.2,8.109h3.521a8.2,8.2,0,0,1,8.2-8.109,8.2,8.2,0,0,1,8.2,8.109h3.521a8.2,8.2,0,0,1,8.2-8.109,8.2,8.2,0,0,1,8.2,8.109h3.521a8.2,8.2,0,0,1,8.2-8.109,8.2,8.2,0,0,1,8.2,8.109h3.521a8.2,8.2,0,0,1,8.2-8.109,8.2,8.2,0,0,1,8.2,8.109h.283V2302.992a9.31,9.31,0,0,1-9.311-9.31A9.31,9.31,0,0,1-5279.8,2284.372Zm-312.288,9.254h-7.545v-.573h7.545Zm9.012,0h-7.544v-.573h7.544Zm9.013,0h-7.545v-.573h7.545Zm9.012,0h-7.545v-.573h7.545Zm9.012,0h-7.544v-.573h7.544Zm9.013,0h-7.544v-.573h7.544Zm9.012,0h-7.545v-.573h7.545Zm9.012,0h-7.545v-.573H-5529Zm9.012,0h-7.544v-.573h7.544Zm9.013,0h-7.545v-.573h7.545Zm9.012,0h-7.545v-.573h7.545Zm9.012,0h-7.545v-.573h7.545Zm9.012,0h-7.544v-.573h7.544Zm9.013,0h-7.545v-.573h7.545Zm9.012,0h-7.545v-.573h7.545Zm9.012,0h-7.544v-.573h7.544Zm9.013,0h-7.545v-.573h7.545Zm9.012,0h-7.545v-.573h7.545Zm9.012,0h-7.546v-.573h7.546Zm9.011,0h-7.544v-.573h7.544Zm9.013,0h-7.545v-.573h7.545Zm9.012,0h-7.545v-.573h7.545Zm9.013,0h-7.545v-.573h7.545Zm9.012,0h-7.544v-.573h7.544Zm9.013,0h-7.545v-.573h7.545Zm9.012,0h-7.545v-.573h7.545Zm9.011,0h-7.544v-.573h7.544Zm9.013,0h-7.545v-.573h7.545Zm9.012,0h-7.545v-.573h7.545Zm9.012,0h-7.545v-.573h7.545Zm9.012,0h-7.544v-.573h7.544Zm9.013,0h-7.545v-.573h7.545Zm9.012,0h-7.545v-.573h7.545Zm9.012,0h-7.545v-.573h7.545Z" transform="translate(5645.12 -1929.58)" fill="#fff"/>
  </g>
</svg>
