<svg xmlns="http://www.w3.org/2000/svg" width="27.252" height="24.97" viewBox="0 0 27.252 24.97">
  <g id="Payment_Confirmed_Default" data-name="Payment Confirmed Default" transform="translate(-20.98 -46.87)" opacity="0.5">
    <path id="Path_439" data-name="Path 439" d="M48.138,282.519a2.021,2.021,0,0,0-2.01-1.418l-.195.008a2.263,2.263,0,0,0-1.511.661l-3.011,2.98a2.112,2.112,0,0,0-1.768-.956H35.4a8.712,8.712,0,0,1-2.323-.309,5.711,5.711,0,0,0-5.32,1.114,7.691,7.691,0,0,0-1.414,1.525,1.91,1.91,0,0,0-2.464.245l-2.745,2.85a.534.534,0,0,0,.01.75l2.208,2.178a.534.534,0,0,0,.75-.76l-1.832-1.807,2.379-2.47a.843.843,0,0,1,1.194-.02l4.245,4.119A.843.843,0,0,1,30.1,292.4l-2.338,2.4-.6-.573a.534.534,0,1,0-.736.773l.984.937a.534.534,0,0,0,.751-.014l2.706-2.777a1.913,1.913,0,0,0,.411-2.032l.953-.111a11.638,11.638,0,0,1,1.337-.078h6.463c.1,0,.2,0,.3-.012l.619-.052a3.584,3.584,0,0,0,2.434-1.251l4.355-5.124A2.076,2.076,0,0,0,48.138,282.519ZM46.921,283.8l-4.355,5.123a2.519,2.519,0,0,1-1.709.878l-.62.052c-.069.006-.14.009-.209.009H33.566a12.709,12.709,0,0,0-1.461.085l-1.544.18-3.415-3.293a6.607,6.607,0,0,1,1.28-1.4,4.624,4.624,0,0,1,4.361-.914,9.775,9.775,0,0,0,2.608.347h4.247a1.051,1.051,0,0,1,.752.32,1.039,1.039,0,0,1,.271.522.527.527,0,0,0,.018.143,1.042,1.042,0,0,1-.228.713l-.016.021a1.039,1.039,0,0,1-.814.391h-3.7a.534.534,0,0,0,0,1.068h3.7a2.1,2.1,0,0,0,1.647-.791l.016-.02a2.106,2.106,0,0,0,.463-1.314l3.421-3.385a1.2,1.2,0,0,1,.8-.352l.195-.008a.95.95,0,0,1,.947.668A1.014,1.014,0,0,1,46.921,283.8Z" transform="translate(0 -224.245)" fill="rgba(0,0,0,0.16)"/>
    <path id="Path_440" data-name="Path 440" d="M88.1,442.467a1.446,1.446,0,1,0,1.446,1.445A1.447,1.447,0,0,0,88.1,442.467Zm0,1.824a.378.378,0,1,1,.378-.378A.378.378,0,0,1,88.1,444.291Z" transform="translate(-62.871 -378.735)" fill="rgba(0,0,0,0.16)"/>
    <path id="Path_441" data-name="Path 441" d="M308.61,420.37l-.027.006a.534.534,0,1,0,.244,1.039l.028-.006a.534.534,0,0,0-.244-1.039Z" transform="translate(-274.949 -357.567)" fill="rgba(0,0,0,0.16)"/>
    <path id="Path_442" data-name="Path 442" d="M109.081,552.911l-.028.006a.534.534,0,0,0,.244,1.039l.027-.006a.534.534,0,0,0-.244-1.039Z" transform="translate(-83.925 -484.458)" fill="rgba(0,0,0,0.16)"/>
    <path id="Path_443" data-name="Path 443" d="M260.619,58.169a5.649,5.649,0,0,0,0-11.3,5.592,5.592,0,0,0-3.486,1.2,5.65,5.65,0,0,0,3.486,10.1Zm-3.977-7.926a4.611,4.611,0,0,1,1.151-1.33,4.536,4.536,0,0,1,2.827-.975,4.58,4.58,0,1,1-3.977,2.305Z" transform="translate(-224.017 0)" fill="rgba(0,0,0,0.16)"/>
    <g id="Group_544" data-name="Group 544" transform="translate(34.332 50.191)">
      <path id="Path_444" data-name="Path 444" d="M338.712,129.451h-1.46l-1.545-2.341v2.341h-1.46V124.8h1.46l1.545,2.381V124.8h1.46Z" transform="translate(-334.247 -124.795)" fill="#989797"/>
    </g>
    <rect id="Rectangle_196" data-name="Rectangle 196" width="5.538" height="0.786" transform="translate(33.796 51.029)" fill="#989797"/>
    <rect id="Rectangle_197" data-name="Rectangle 197" width="5.538" height="0.786" transform="translate(33.796 52.94)" fill="#989797"/>
  </g>
</svg>
