<svg xmlns="http://www.w3.org/2000/svg" width="19.056" height="25.986" viewBox="0 0 19.056 25.986">
  <g id="ready_for_PickUp_Default" data-name="ready for PickUp Default" transform="translate(-80 -15.986)">
    <path id="Path_449" data-name="Path 449" d="M98.623,22.05H95.591V19.885a3.89,3.89,0,0,0-5.847-3.37,3.89,3.89,0,0,0-5.847,3.37V22.05H80.433a.433.433,0,0,0-.433.433V39.807a2.168,2.168,0,0,0,2.165,2.165H96.89a2.168,2.168,0,0,0,2.165-2.165V22.483A.433.433,0,0,0,98.623,22.05Zm-6.929-5.2a3.035,3.035,0,0,1,3.032,3.032V22.05H91.693V19.885a3.885,3.885,0,0,0-1.183-2.791A3.016,3.016,0,0,1,91.693,16.853Zm-1.949.713a3.025,3.025,0,0,1,1.083,2.319V22.05H88.662V19.885A3.025,3.025,0,0,1,89.744,17.566Zm-4.98,2.319a3.032,3.032,0,0,1,4.214-2.791A3.884,3.884,0,0,0,87.8,19.885V22.05H84.764Zm-3.9,19.922V22.916H83.9v.928a1.732,1.732,0,1,0,.866,0v-.928h6.063v.928a1.732,1.732,0,1,0,.866,0v-.928h3.032v16.89a2.143,2.143,0,0,0,.444,1.3h-13A1.3,1.3,0,0,1,80.866,39.807Zm3.465-13.859a.433.433,0,0,0,.433-.433v-.746a.866.866,0,1,1-.866,0v.746A.433.433,0,0,0,84.331,25.948Zm6.929,0a.433.433,0,0,0,.433-.433v-.746a.866.866,0,1,1-.866,0v.746A.433.433,0,0,0,91.26,25.948ZM98.19,39.807a1.3,1.3,0,0,1-2.6,0V22.916h2.6Z" fill="#e0dfdf"/>
    <path id="Path_450" data-name="Path 450" d="M152.662,228.331a4.331,4.331,0,0,0-8.662,0c0,2.252,3.6,6.328,4.009,6.786a.433.433,0,0,0,.612.033.439.439,0,0,0,.033-.033C149.063,234.659,152.662,230.583,152.662,228.331Zm-7.8,0a3.465,3.465,0,0,1,6.929,0c0,1.482-2.264,4.434-3.465,5.838C147.13,232.765,144.866,229.813,144.866,228.331Z" transform="translate(-60.535 -196.753)" fill="#989797"/>
    <path id="Path_451" data-name="Path 451" d="M193.732,272a1.732,1.732,0,1,0,1.732,1.732A1.732,1.732,0,0,0,193.732,272Zm0,2.6a.866.866,0,1,1,.866-.866A.866.866,0,0,1,193.732,274.6Z" transform="translate(-105.937 -242.154)" fill="#989797"/>
    <path id="Path_452" data-name="Path 452" d="M137.961,432h-9.528a.433.433,0,1,0,0,.866h9.528a.433.433,0,1,0,0-.866Z" transform="translate(-45.401 -393.493)" fill="#989797"/>
  </g>
</svg>
