<svg xmlns="http://www.w3.org/2000/svg" width="27.373" height="27.373" viewBox="0 0 27.373 27.373">
  <g id="Group_547" data-name="Group 547" transform="translate(-367.723 -1039.584)">
    <path id="Path_456" data-name="Path 456" d="M620.966,1207.081l2.652,3.324a.292.292,0,0,1-.249.469H619.1a.3.3,0,0,1-.312-.293v-3.324a.3.3,0,0,1,.312-.293h1.612A.318.318,0,0,1,620.966,1207.081Z" transform="translate(-233.473 -155.649)" fill="#228bc4"/>
    <path id="Path_457" data-name="Path 457" d="M479.31,1097.332a1.955,1.955,0,1,1,1.955,1.955A1.957,1.957,0,0,1,479.31,1097.332Z" transform="translate(-103.766 -51.883)" fill="#228bc4"/>
    <path id="Path_458" data-name="Path 458" d="M389.58,1048.429a2.93,2.93,0,0,0-2.227-1.024h-4.286a7.581,7.581,0,0,0,.3-1.955,5.866,5.866,0,1,0-11.731,0,7.6,7.6,0,0,0,.3,1.955h-2.252a1.957,1.957,0,0,0-1.955,1.955v11.731a1.957,1.957,0,0,0,1.955,1.955h.978a3.91,3.91,0,1,0,7.821,0h4.888a3.91,3.91,0,1,0,7.821,0h1.955a1.957,1.957,0,0,0,1.955-1.955v-5.866a.978.978,0,0,0-.235-.636Zm-12.081-6.889a3.915,3.915,0,0,1,3.91,3.91c0,2.48-2.426,6.2-3.911,8.186-1.5-2.005-3.91-5.687-3.91-8.186A3.915,3.915,0,0,1,377.5,1041.539ZM374.566,1065a1.957,1.957,0,0,1-1.955-1.955,1.955,1.955,0,1,1,3.91,0A1.957,1.957,0,0,1,374.566,1065Zm12.709,0a1.957,1.957,0,0,1-1.955-1.955,1.955,1.955,0,1,1,3.91,0A1.957,1.957,0,0,1,387.275,1065Zm5.866-3.91h-2.492a3.889,3.889,0,0,0-6.748,0H377.94a3.889,3.889,0,0,0-6.748,0h-1.514V1049.36h2.95a31.2,31.2,0,0,0,4.12,6.492h0a.979.979,0,0,0,.75.35h0a1.09,1.09,0,0,0,.75-.351,31.564,31.564,0,0,0,4.118-6.492h4.986a.976.976,0,0,1,.742.341l5.045,5.886Z" fill="#228bc4"/>
  </g>
</svg>
