<svg xmlns="http://www.w3.org/2000/svg" width="15.801" height="19.899" viewBox="0 0 15.801 19.899"><defs><style>.a{fill:#013d5d;}</style></defs><g transform="translate(-175.761 65.246)"><g transform="translate(175.761 -65.246)"><path class="a" d="M24.45,3.029a1.528,1.528,0,0,0-1.079-.454L10.732,2.5h-.009A1.52,1.52,0,0,0,9.2,3.881c0,.047-.009.093-.009.14l-.1,16.768a1.491,1.491,0,0,0,.137.631,1.531,1.531,0,0,0,1.387.9l12.639.078h.009a1.528,1.528,0,0,0,1.508-1.269,1.505,1.505,0,0,0,.025-.255l.1-16.762A1.528,1.528,0,0,0,24.45,3.029ZM13.99,20.167H11.617V18.46H13.99Zm0-2.794H11.617V15.666H13.99Zm0-2.794H11.617V12.872H13.99Zm0-2.794H11.617V10.078H13.99Zm4.189,8.383H15.806V18.46h2.373Zm0-2.794H15.806V15.666h2.373Zm0-2.794H15.806V12.872h2.373Zm0-2.794H15.806V10.078h2.373Zm4.189,8.383H20v-4.5h2.373Zm0-5.589H20V12.872h2.373Zm0-2.794H20V10.078h2.373Zm.945-4.362a.3.3,0,0,1-.3.3H10.977a.3.3,0,0,1-.3-.3V4.475a.3.3,0,0,1,.3-.3H23.008a.3.3,0,0,1,.3.3Z" transform="translate(-9.09 -2.5)"/></g></g></svg>