<svg xmlns="http://www.w3.org/2000/svg" width="22.386" height="19.96" viewBox="0 0 22.386 19.96"><defs><style>.a{fill:#013d5d;}</style></defs><g transform="translate(-6.016 95)"><g transform="translate(6.016 -95)"><path class="a" d="M4.746,961.362a.73.73,0,0,0,0,1.461H7.561l2.51,11.844c.1.446.392.817.761.814H23a.73.73,0,1,0,0-1.461H11.425l-.312-1.46H23.976a.753.753,0,0,0,.707-.571l1.7-7.3a.764.764,0,0,0-.707-.89H9.265l-.4-1.856a.754.754,0,0,0-.715-.578Zm4.823,3.895h3.8l.365,2.191h-3.7Zm5.294,0h4.594l-.365,2.191H15.228Zm6.085,0h3.811l-.51,2.191H20.583Zm-10.6,3.651h3.636l.365,2.191H10.809Zm5.127,0h3.377l-.365,2.191H15.837Zm4.868,0h3.568L23.4,971.1H19.975Zm-6.831,7.546a2.434,2.434,0,1,0,2.434,2.434A2.445,2.445,0,0,0,13.509,976.454Zm6.816,0a2.434,2.434,0,1,0,2.434,2.434A2.445,2.445,0,0,0,20.325,976.454Zm-6.816,1.461a.974.974,0,1,1-.974.974A.963.963,0,0,1,13.509,977.914Zm6.816,0a.974.974,0,1,1-.974.974A.963.963,0,0,1,20.325,977.914Z" transform="translate(-4.016 -961.362)"/></g></g></svg>