<?xml version="1.0"?>
<svg xmlns="http://www.w3.org/2000/svg" xmlns:xlink="http://www.w3.org/1999/xlink" version="1.1" id="Capa_1" x="0px" y="0px" viewBox="0 0 512 512" style="enable-background:new 0 0 512 512;" xml:space="preserve" width="512px" height="512px" class=""><g transform="matrix(6.12323e-17 1 -1 6.12323e-17 512 0)"><g>
	<g>
		<path d="M477.655,102.4H367.523c-4.199,0-7.596,3.437-7.604,7.636c-0.017,9.209-7.516,16.696-16.729,16.696    s-16.711-7.487-16.729-16.696c-0.008-4.199-3.405-7.636-7.604-7.636H112.542c-4.199,0-7.604,3.405-7.604,7.604    s3.405,7.604,7.604,7.604h199.626c3.42,13.952,16.032,24.333,31.022,24.333c14.99,0,27.602-10.381,31.022-24.333h103.443    c10.568,0,19.137,8.568,19.137,19.137v160.217c0,4.199,3.405,7.604,7.604,7.604s7.604-3.405,7.604-7.604V136.745    C512,117.776,496.624,102.4,477.655,102.4z" data-original="#000000" class="active-path" fill="#000000"/>
	</g>
</g><g>
	<g>
		<path d="M504.396,324.844c-4.199,0-7.604,3.405-7.604,7.604v42.807c0,10.569-8.568,19.137-19.137,19.137H374.212    c-3.42-13.952-16.032-24.333-31.022-24.333c-14.99,0-27.602,10.381-31.022,24.333H34.345c-10.568,0-19.137-8.568-19.137-19.137    V136.745c0-10.568,8.568-19.137,19.137-19.137h42.711c4.199,0,7.604-3.405,7.604-7.604s-3.405-7.604-7.604-7.604H34.345    C15.376,102.4,0,117.776,0,136.745v238.511C0,394.224,15.376,409.6,34.345,409.6h284.513c4.199,0,7.596-3.437,7.604-7.636    c0.017-9.21,7.516-16.696,16.729-16.696s16.711,7.486,16.729,16.696c0.008,4.199,3.405,7.636,7.604,7.636h110.133    c18.968,0,34.345-15.376,34.345-34.345v-42.807C512,328.249,508.595,324.844,504.396,324.844z" data-original="#000000" class="active-path" fill="#000000"/>
	</g>
</g><g>
	<g>
		<path d="M343.19,297.061c-17.61,0-31.937,14.327-31.937,31.937s14.327,31.937,31.937,31.937s31.937-14.327,31.937-31.937    S360.8,297.061,343.19,297.061z M343.19,345.727c-9.224,0-16.729-7.505-16.729-16.729c0-9.224,7.505-16.729,16.729-16.729    s16.729,7.505,16.729,16.729C359.919,338.222,352.414,345.727,343.19,345.727z" data-original="#000000" class="active-path" fill="#000000"/>
	</g>
</g><g>
	<g>
		<path d="M343.19,224.063c-17.61,0-31.937,14.327-31.937,31.937s14.327,31.937,31.937,31.937S375.127,273.61,375.127,256    C375.127,238.39,360.8,224.063,343.19,224.063z M343.19,272.729c-9.224,0-16.729-7.505-16.729-16.729s7.505-16.729,16.729-16.729    s16.729,7.505,16.729,16.729S352.414,272.729,343.19,272.729z" data-original="#000000" class="active-path" fill="#000000"/>
	</g>
</g><g>
	<g>
		<path d="M343.19,151.065c-17.61,0-31.937,14.327-31.937,31.937c0,17.61,14.327,31.937,31.937,31.937s31.937-14.327,31.937-31.937    C375.127,165.392,360.8,151.065,343.19,151.065z M343.19,199.731c-9.224,0-16.729-7.505-16.729-16.729    c0-9.224,7.505-16.729,16.729-16.729s16.729,7.505,16.729,16.729C359.919,192.226,352.414,199.731,343.19,199.731z" data-original="#000000" class="active-path" fill="#000000"/>
	</g>
</g><g>
	<g>
		<path d="M274.25,165.259H67.422c-4.2,0-7.604,3.404-7.604,7.604c0,4.2,3.404,7.604,7.604,7.604H274.25    c4.2,0,7.604-3.404,7.604-7.604C281.853,168.663,278.45,165.259,274.25,165.259z" data-original="#000000" class="active-path" fill="#000000"/>
	</g>
</g><g>
	<g>
		<path d="M215.446,209.869H67.422c-4.2,0-7.604,3.404-7.604,7.604s3.404,7.604,7.604,7.604h148.024c4.2,0,7.604-3.404,7.604-7.604    S219.646,209.869,215.446,209.869z" data-original="#000000" class="active-path" fill="#000000"/>
	</g>
</g><g>
	<g>
		<path d="M189.085,329.505H67.422c-4.2,0-7.604,3.404-7.604,7.604c0,4.2,3.404,7.604,7.604,7.604h121.663    c4.2,0,7.604-3.404,7.604-7.604C196.689,332.908,193.286,329.505,189.085,329.505z" data-original="#000000" class="active-path" fill="#000000"/>
	</g>
</g><g>
	<g>
		<path d="M274.25,329.505h-40.554c-4.2,0-7.604,3.404-7.604,7.604c0,4.2,3.404,7.604,7.604,7.604h40.554    c4.2,0,7.604-3.404,7.604-7.604C281.853,332.908,278.45,329.505,274.25,329.505z" data-original="#000000" class="active-path" fill="#000000"/>
	</g>
</g><g>
	<g>
		<path d="M466.492,317.339H405.66c-4.2,0-7.604,3.404-7.604,7.604s3.404,7.604,7.604,7.604h60.832c4.2,0,7.604-3.404,7.604-7.604    S470.692,317.339,466.492,317.339z" data-original="#000000" class="active-path" fill="#000000"/>
	</g>
</g></g> </svg>
