<svg xmlns="http://www.w3.org/2000/svg" width="44.855" height="38.057" viewBox="0 0 44.855 38.057"><defs><style>.a{fill:#989797;}</style></defs><g transform="translate(0.008 -7.576)"><path class="a" d="M12.894,54.448,5.485,60.139c.22.022.332.049.448.049h6.794c.978,0,1.094.1,1.4,1s.691,1.861,1.036,2.794a12.023,12.023,0,0,1,.39,1.157.507.507,0,0,0,.587.417H28.321c.834,0,.83,0,1.1-.771.484-1.368.964-2.74,1.462-4.1a.807.807,0,0,1,.852-.5h7.494l.04-.112-7.31-5.61a4.036,4.036,0,0,1,.5-.072h3.48a1.511,1.511,0,0,1,.753.265c2.319,1.547,4.628,3.077,6.9,4.673a2.834,2.834,0,0,1,1.215,2.83c-.17,1.247-.39,2.494-.614,3.731s-.426,2.435-.736,3.628a2.431,2.431,0,0,1-1.574,1.623,4.252,4.252,0,0,1-1.48.3q-17.984.022-35.972,0a3.094,3.094,0,0,1-2.987-1.754,3,3,0,0,1-.233-.825c-.211-1.193-.4-2.4-.614-3.6-.184-1.036-.435-2.076-.57-3.112A2.875,2.875,0,0,1,1.287,59.3c1.538-1.085,3.139-2.108,4.687-3.139.785-.529,1.561-1.067,2.354-1.583a1.054,1.054,0,0,1,.534-.166h3.565a4.552,4.552,0,0,1,.466.036Z" transform="translate(0 -25.819)"/><path class="a" d="M47.33,18.332c-.247,0-.417.036-.587.036H40.572c-.448,0-.525.144-.525.538v10.4c0,.583,0,.588-.565.588H32.028c-.556,0-.561,0-.561-.552V18.987c0-.6,0-.6-.61-.6h-6.09a5.115,5.115,0,0,1-.587-.027c.161-.166.251-.269.35-.363l8.813-8.279c.7-.65,1.395-1.287,2.072-1.951a.413.413,0,0,1,.7,0q3.059,2.9,6.135,5.772l4.933,4.624C47.209,18.189,47.236,18.229,47.33,18.332Z" transform="translate(-13.34)"/></g></svg>
